<?xml version="1.0" encoding="UTF-8"?>
<svg xmlns="http://www.w3.org/2000/svg" xmlns:xlink="http://www.w3.org/1999/xlink" viewBox="0 0 1920 1080">
  <defs>
    <style>
      .cls-1, .cls-2, .cls-3, .cls-4 {
        fill: #fff;
      }

      .cls-2 {
        opacity: .38;
      }

      .cls-5 {
        fill: #e7345d;
      }

      .cls-6, .cls-7, .cls-8 {
        fill: #f2efbf;
      }

      .cls-7 {
        opacity: .5;
      }

      .cls-9 {
        fill: #452f3b;
      }

      .cls-10 {
        fill: #b8416d;
      }

      .cls-11 {
        fill: #7e435c;
      }

      .cls-3 {
        opacity: .7;
      }

      .cls-8 {
        opacity: .24;
      }

      .cls-12 {
        fill: url(#Dégradé_sans_nom_47);
      }

      .cls-4 {
        opacity: .36;
      }

      .cls-13 {
        fill: #eb6768;
      }
    </style>
    <linearGradient id="Dégradé_sans_nom_47" data-name="Dégradé sans nom 47" x1="617.46" y1="342.26" x2="1195.78" y2="342.26" gradientTransform="translate(617.74 -617.46) rotate(90) scale(1 -1)" gradientUnits="userSpaceOnUse">
      <stop offset="0" stop-color="#ef8594"/>
      <stop offset="1" stop-color="#f19384"/>
    </linearGradient>
  </defs>
  <g id="SKY">
    <rect class="cls-12" x="0" y="0" width="1920" height="578.32"/>
  </g>
  <g id="SUN">
    <g>
      <circle class="cls-6" cx="1130.4" cy="482.16" r="259.38"/>
      <circle class="cls-7" cx="1130.4" cy="482.16" r="300.95"/>
      <circle class="cls-8" cx="1130.4" cy="482.16" r="341.63"/>
    </g>
    <path class="cls-1" d="m199.71,167.99c-23.04-15.21-46.07-30.43-69.11-45.64,23.84,13.92,47.69,27.83,71.53,41.75,3.41,1.99,4.88,4.66,4.23,5.52-.62.83-3.59.49-6.66-1.63Z"/>
    <path class="cls-1" d="m1123.11,130.87c26.31-8.35,52.62-16.7,78.93-25.04-25.92,9.48-51.85,18.97-77.77,28.45-3.71,1.36-6.6,1.1-6.79.28-.18-.8,2.06-2.62,5.63-3.69Z"/>
    <path class="cls-4" d="m459.66,257.32c1.23,0,2.43.16,3.59.43,2.72-6.53,9.43-11.15,17.31-11.15,5.92,0,11.18,2.61,14.58,6.68,3.54-3.6,8.79-5.89,14.66-5.89,3.78,0,7.3.96,10.28,2.6,4.87-7.92,17.18-13.55,31.6-13.55,16.34,0,29.98,7.22,33.15,16.83,4.12-2.97,9.25-4.73,14.8-4.73,13.63,0,24.68,10.61,24.68,23.7h-48.35s-1.02,0-1.02,0h-47.54c-.17-.11-.33-.22-.49-.33-.07.11-.12.22-.19.33h-29.64s-4.18,0-4.18,0h-15.87s-12.98,0-12.98,0h-21.74c2.32-8.64,9.21-14.91,17.36-14.91Z"/>
    <path class="cls-2" d="m234.69,196.35c.05-3.66,3.14-6.62,6.95-6.62,1.72,0,3.27.62,4.49,1.62,2.2-7.99,11.79-14.01,23.28-14.01,8.59,0,16.09,3.37,20.26,8.39,3.4-4.34,10.27-7.31,18.21-7.31,7.46,0,13.97,2.63,17.56,6.55,3.12-10.6,13.22-18.37,25.22-18.37,10.49,0,19.51,5.95,23.71,14.52,3.09-2.36,7-3.78,11.25-3.78,8.09,0,14.95,5.11,17.29,12.16,3.11-2.41,7.06-3.86,11.36-3.86,7.53,0,13.99,4.42,16.74,10.71h-196.32Z"/>
    <circle class="cls-3" cx="647.42" cy="156.67" r="3.29"/>
    <circle class="cls-3" cx="625.51" cy="167.24" r="1.19"/>
    <circle class="cls-3" cx="625.51" cy="167.24" r="1.19"/>
    <circle class="cls-3" cx="710.09" cy="203.95" r="2.32"/>
    <circle class="cls-3" cx="796.23" cy="121.86" r="1.96"/>
    <circle class="cls-3" cx="644.43" cy="84.03" r="2.99"/>
    <circle class="cls-3" cx="670.53" cy="273.89" r="3.3"/>
    <circle class="cls-3" cx="621.07" cy="246.33" r="1.73"/>
    <circle class="cls-3" cx="515.07" cy="187.09" r="2.7"/>
    <circle class="cls-3" cx="541.46" cy="83.04" r=".9"/>
    <circle class="cls-3" cx="320.6" cy="224.04" r="1.65"/>
    <circle class="cls-3" cx="371.03" cy="257.38" r="2.99"/>
    <circle class="cls-3" cx="327.85" cy="310.35" r="1.57"/>
    <circle class="cls-3" cx="438.08" cy="341.74" r="2.8"/>
    <circle class="cls-3" cx="338.99" cy="84.66" r="2.53"/>
    <circle class="cls-3" cx="291.63" cy="137.9" r="2.67"/>
    <circle class="cls-3" cx="457.38" cy="138.74" r="2.61"/>
    <circle class="cls-3" cx="219.7" cy="110.75" r="1.72"/>
    <circle class="cls-3" cx="247.96" cy="279.94" r="2.75"/>
    <circle class="cls-3" cx="168.33" cy="151.37" r=".3"/>
    <circle class="cls-3" cx="147.55" cy="99.24" r="1.87"/>
    <circle class="cls-3" cx="121.28" cy="64.41" r="2.11"/>
    <circle class="cls-3" cx="129.28" cy="201.42" r="2.53"/>
    <circle class="cls-3" cx="664.53" cy="343.03" r="1.91"/>
    <circle class="cls-3" cx="1257.84" cy="78.52" r="3.29"/>
    <circle class="cls-3" cx="1195.38" cy="81.81" r="1.19"/>
    <circle class="cls-3" cx="1195.38" cy="81.81" r="1.19"/>
    <circle class="cls-3" cx="1279.96" cy="118.52" r="2.32"/>
    <path class="cls-4" d="m1767.6,169.6c-1.23,0-2.43.16-3.59.43-2.72-6.53-9.43-11.15-17.31-11.15-5.92,0-11.18,2.61-14.58,6.68-3.54-3.6-8.79-5.89-14.66-5.89-3.78,0-7.3.96-10.28,2.6-4.87-7.92-17.18-13.55-31.6-13.55-16.34,0-29.98,7.22-33.15,16.83-4.12-2.97-9.25-4.73-14.8-4.73-13.63,0-24.68,10.61-24.68,23.7h48.35s1.02,0,1.02,0h47.54c.17-.11.33-.22.49-.33.07.11.12.22.19.33h84.42c-2.32-8.64-9.21-14.91-17.36-14.91Z"/>
    <path class="cls-2" d="m1669.94,261.2c-.05-3.66-3.14-6.62-6.95-6.62-1.72,0-3.27.62-4.49,1.62-2.2-7.99-11.79-14.01-23.28-14.01-8.59,0-16.09,3.37-20.26,8.39-3.4-4.34-10.27-7.31-18.21-7.31-7.46,0-13.97,2.63-17.56,6.55-3.12-10.6-13.22-18.37-25.22-18.37-10.49,0-19.51,5.95-23.71,14.52-3.09-2.36-7-3.78-11.25-3.78-8.09,0-14.95,5.11-17.29,12.16-3.11-2.41-7.06-3.86-11.36-3.86-7.53,0-13.99,4.42-16.74,10.71h196.32Z"/>
    <circle class="cls-3" cx="1454.76" cy="86.18" r="3.29"/>
    <circle class="cls-3" cx="1476.68" cy="96.75" r="1.19"/>
    <circle class="cls-3" cx="1476.68" cy="96.75" r="1.19"/>
    <path class="cls-3" d="m1394.42,133.46c0,1.28-1.04,2.32-2.32,2.32s-2.32-1.04-2.32-2.32,1.04-2.32,2.32-2.32,2.32,1.04,2.32,2.32Z"/>
    <path class="cls-3" d="m1434.96,203.4c0,1.82-1.48,3.3-3.3,3.3s-3.3-1.48-3.3-3.3,1.48-3.3,3.3-3.3,3.3,1.48,3.3,3.3Z"/>
    <path class="cls-3" d="m1482.84,175.83c0,.95-.77,1.73-1.73,1.73s-1.73-.77-1.73-1.73.77-1.73,1.73-1.73,1.73.77,1.73,1.73Z"/>
    <path class="cls-3" d="m1589.82,116.59c0,1.49-1.21,2.7-2.7,2.7s-2.7-1.21-2.7-2.7,1.21-2.7,2.7-2.7,2.7,1.21,2.7,2.7Z"/>
    <circle class="cls-3" cx="1781.59" cy="153.55" r="1.65"/>
    <circle class="cls-3" cx="1731.16" cy="186.88" r="2.99"/>
    <path class="cls-3" d="m1775.91,239.86c0,.87-.7,1.57-1.57,1.57s-1.57-.7-1.57-1.57c0-.87.7-1.57,1.57-1.57s1.57.7,1.57,1.57Z"/>
    <circle class="cls-3" cx="1664.11" cy="271.24" r="2.8"/>
    <circle class="cls-3" cx="1644.81" cy="68.24" r="2.61"/>
    <circle class="cls-3" cx="1437.66" cy="272.53" r="1.91"/>
  </g>
  <g id="MOUNTAINS">
    <path class="cls-13" d="m1846.88,415.28l-12.46-7.66v-97.02c-14.1-8.17-28.2-16.34-42.3-24.51v33.19h-21.44v39.32h-24.33c0-10.1,0-20.2,0-30.31-6.37-5.73-12.74-11.46-19.12-17.18l-14.49,7.15v110.81h-30.13v-56.17l-14.48-19.4-21.44,9.96c-.19,31.17-.39,62.35-.58,93.52-11.39,6.98-22.79,13.96-34.18,20.94-10.04-15.83-20.09-31.66-30.13-47.49-18.93.17-37.85.34-56.78.51.19,18.89.39,37.79.58,56.68-11.39,7.32-22.79,14.64-34.18,21.96-20.28-10.83-40.55-21.67-60.83-32.5v-141.45l-21.44-17.36-32.45,8.17-24.33-28.6v109.28c-5.46,22.22-10.92,44.44-16.38,66.66-13.1,9.02-26.2,18.04-39.29,27.06v119.65h550.2v-205.2Z"/>
    <path class="cls-13" d="m773.45,515.78v-74.55l-31.87-27.06-16.22,13.28v41.87l-20.07-13.28v-86.81l-35.41,12.26v53.62h-24.09l-17.77-10.21-14.49,7.15v25.53l-17.96,15.83v-62.3h-34.76v15.32h-14.49v59.23h-17.38v35.74h-13.33l-12.75-35.74v-111.32l-33.61-16.85-13.33,22.98v57.7l-11.59,4.6v60.77l-19.12,21.45v-119.49l-30.71-10.21v38.46l-23.48,13.31v62.3l-20.43,9.19-18.72-33.7v-6.72h-14.98v25.11h-21.79v-91.23h-21.45l-19.4,19.4v84.48l-26.89-12.31v-56.51h-82.38v24.51l-65.36,21.79v46.66l-22.65,22.65H0v80.03l296.83,29.3,99.91-32.14c116.13,28.91,232.26,57.81,348.38,86.72,174.65,22.39,306.07,14.95,315.95-22.95,9.65-37.05-96.33-104.98-245.49-167.89-14.05-6.65-28.09-13.29-42.14-19.94Z"/>
  </g>
  <g id="FOUTH_PLAN" data-name="FOUTH PLAN">
    <path class="cls-5" d="m1871.09,533.53c-5.25-.16-11.62-.88-47.06-13.02-36.27-12.42-39.52-15.07-54.88-18.65-5.09-1.19-14.62-3.21-49.74-5.48-37.74-2.44-56.61-3.66-78.12-2.68-37.28,1.7-65.22,7.92-84.26,12.26-47.4,10.79-81.3,25.25-89.01,28.59-25.76,11.17-26.51,14.28-49.76,24.24-36.62,15.68-65.75,21.26-84.89,25.3-132.33,27.9-141.35,57.15-191.49,45.96-55.25-12.33-45.74-48.2-104.17-61.28-51.33-11.49-62.74,15.29-160.85,15.32-48.22.01-72.34.02-96.51-13.79-25.56-14.6-36.99-34.52-66.63-36.67-15.12-1.1-29.9,2.8-42.14,6.03-7.41,1.95-19.69,5.68-42.89,16.85-25.18,12.12-42.95,23.26-47.49,26.04-38.7,23.73-85.33,35.22-108.77,38.3-56.26,7.38-64.74-22.46-139.4-35.23-43.19-7.39-57.24-.29-185.32,13.77-40.37,4.43-90.24,9.35-147.72,13.76v50.45c22.53,62.8,110.61,165.9,264.28,309.29h1655.72v-452.91c-10.92,6.44-28.04,14.2-48.91,13.55Z"/>
  </g>
  <g id="THIRD_PLAN" data-name="THIRD PLAN">
    <path class="cls-10" d="m1920,629.51c-28,16.54-70.76,35.67-120.94,31.51-45.72-3.79-59.1-23.72-107.16-43.77-121.6-50.74-250.74-12.76-276.77-5.11-51.81,15.24-53.14,26.75-114.38,41.87-38.33,9.47-87.43,21.59-146.83,14.74-76.1-8.78-86.76-41.37-150.13-43.66-67.35-2.43-79.25,26.74-144,38.3-147,26.23-199.23-95.55-369.19-85.79-92.49,5.31-94.73,44.53-210.11,62.11-113.88,17.35-212.81-5.44-280.49-28.6v468.87h1920v-450.49Z"/>
    <g>
      <rect class="cls-10" x="557.42" y="563.36" width="2.06" height="18.75" rx="1.03" ry="1.03" transform="translate(1116.91 1145.47) rotate(180)"/>
      <path class="cls-10" d="m558.45,573.46h3.31c.42,0,.78.25.94.61-.26.84-1.04,1.45-1.97,1.45h-2.28c-.57,0-1.03-.46-1.03-1.03,0-.57.46-1.03,1.03-1.03Z"/>
      <path class="cls-10" d="m560.74,572.22v1.25h-1.25c.69,0,1.25-.56,1.25-1.25Z"/>
      <path class="cls-10" d="m561.76,567.87c.57,0,1.03.46,1.03,1.03v4.57c0,.92-.61,1.71-1.45,1.97-.36-.16-.61-.52-.61-.94v-5.6c0-.57.46-1.03,1.03-1.03Z"/>
      <path class="cls-10" d="m558.45,576.26h-3.31c-.42,0-.78.25-.94.61.26.84,1.04,1.45,1.97,1.45h2.28c.57,0,1.03-.46,1.03-1.03s-.46-1.03-1.03-1.03Z"/>
      <path class="cls-10" d="m556.17,575.02v1.25h1.25c-.69,0-1.25-.56-1.25-1.25Z"/>
      <path class="cls-10" d="m555.14,570.67c-.57,0-1.03.46-1.03,1.03v4.57c0,.92.61,1.71,1.45,1.97.36-.16.61-.52.61-.94v-5.6c0-.57-.46-1.03-1.03-1.03Z"/>
    </g>
    <g>
      <rect class="cls-10" x="1535.28" y="574.35" width="2.06" height="18.75" rx="1.03" ry="1.03"/>
      <path class="cls-10" d="m1536.3,584.46h-3.31c-.42,0-.78.25-.94.61.26.84,1.04,1.45,1.97,1.45h2.28c.57,0,1.03-.46,1.03-1.03s-.46-1.03-1.03-1.03Z"/>
      <path class="cls-10" d="m1534.02,583.21v1.25h1.25c-.69,0-1.25-.56-1.25-1.25Z"/>
      <path class="cls-10" d="m1532.99,578.86c-.57,0-1.03.46-1.03,1.03v4.57c0,.92.61,1.71,1.45,1.97.36-.16.61-.52.61-.94v-5.6c0-.57-.46-1.03-1.03-1.03Z"/>
      <path class="cls-10" d="m1536.3,587.25h3.31c.42,0,.78.25.94.61-.26.84-1.04,1.45-1.97,1.45h-2.28c-.57,0-1.03-.46-1.03-1.03,0-.57.46-1.03,1.03-1.03Z"/>
      <path class="cls-10" d="m1538.59,586.01v1.25h-1.25c.69,0,1.25-.56,1.25-1.25Z"/>
      <path class="cls-10" d="m1539.62,581.66c.57,0,1.03.46,1.03,1.03v4.57c0,.92-.61,1.71-1.45,1.97-.36-.16-.61-.52-.61-.94v-5.6c0-.57.46-1.03,1.03-1.03Z"/>
    </g>
    <g>
      <rect class="cls-10" x="1211.47" y="652.21" width="2.06" height="18.75" rx="1.03" ry="1.03"/>
      <path class="cls-10" d="m1212.5,662.32h-3.31c-.42,0-.78.25-.94.61.26.84,1.04,1.45,1.97,1.45h2.28c.57,0,1.03-.46,1.03-1.03s-.46-1.03-1.03-1.03Z"/>
      <path class="cls-10" d="m1210.22,661.07v1.25h1.25c-.69,0-1.25-.56-1.25-1.25Z"/>
      <path class="cls-10" d="m1209.19,656.72c-.57,0-1.03.46-1.03,1.03v4.57c0,.92.61,1.71,1.45,1.97.36-.16.61-.52.61-.94v-5.6c0-.57-.46-1.03-1.03-1.03Z"/>
      <path class="cls-10" d="m1212.5,665.11h3.31c.42,0,.78.25.94.61-.26.84-1.04,1.45-1.97,1.45h-2.28c-.57,0-1.03-.46-1.03-1.03,0-.57.46-1.03,1.03-1.03Z"/>
      <path class="cls-10" d="m1214.78,663.87v1.25h-1.25c.69,0,1.25-.56,1.25-1.25Z"/>
      <path class="cls-10" d="m1215.81,659.52c.57,0,1.03.46,1.03,1.03v4.57c0,.92-.61,1.71-1.45,1.97-.36-.16-.61-.52-.61-.94v-5.6c0-.57.46-1.03,1.03-1.03Z"/>
    </g>
    <g>
      <rect class="cls-10" x="42.9" y="607.49" width="2.06" height="18.75" rx="1.03" ry="1.03"/>
      <path class="cls-10" d="m43.93,617.6h-3.31c-.42,0-.78.25-.94.61.26.84,1.04,1.45,1.97,1.45h2.28c.57,0,1.03-.46,1.03-1.03s-.46-1.03-1.03-1.03Z"/>
      <path class="cls-10" d="m41.65,616.35v1.25h1.25c-.69,0-1.25-.56-1.25-1.25Z"/>
      <path class="cls-10" d="m40.62,612c-.57,0-1.03.46-1.03,1.03v4.57c0,.92.61,1.71,1.45,1.97.36-.16.61-.52.61-.94v-5.6c0-.57-.46-1.03-1.03-1.03Z"/>
      <path class="cls-10" d="m43.93,620.39h3.31c.42,0,.78.25.94.61-.26.84-1.04,1.45-1.97,1.45h-2.28c-.57,0-1.03-.46-1.03-1.03s.46-1.03,1.03-1.03Z"/>
      <path class="cls-10" d="m46.21,619.15v1.25h-1.25c.69,0,1.25-.56,1.25-1.25Z"/>
      <path class="cls-10" d="m47.24,614.8c.57,0,1.03.46,1.03,1.03v4.57c0,.92-.61,1.71-1.45,1.97-.36-.16-.61-.52-.61-.94v-5.6c0-.57.46-1.03,1.03-1.03Z"/>
    </g>
  </g>
  <g id="SECOND_PLAN" data-name="SECOND PLAN">
    <path class="cls-11" d="m1920,748.49c-70.58-45.14-123.05-48.7-158.66-42.89-48.33,7.88-56.74,31.59-127.15,44.43-62.03,11.31-109.92,2.82-124.09,0-39.21-7.81-43.49-16.69-81.19-27.57-75.75-21.86-145.21-11.03-171.95-5.56-63.3,12.94-98.71,39.09-156.94,36.69-27.02-1.11-46.27-5.81-46.27-5.81-39.94-10.18-54.76-29.76-118.15-26.87-98.39,4.48-114.46,54-176.68,38.81-78.55-19.18-110.44-112.14-159.32-97.02-8.24,2.55-6,4.78-24.51,17.36-45.12,30.67-92.27,37.51-121.53,40.85-107.87,12.3-173.92-48.26-277.75-41.34-42.63,2.84-103.82,17.87-175.81,76.6v323.85h1920v-331.51Z"/>
    <path class="cls-11" d="m1318.17,710.76c-.06-.46-.3-1.76-1.31-2.9-1.01-1.15-2.18-1.45-2.59-1.53.56-.07,1.49-.12,2.59.22,1.09.33,1.86.89,2.31,1.26-.16-.68-.44-1.59-1-2.53-.28-.47-.57-.86-.84-1.18-.28-.25-.65-.52-1.11-.76-.77-.4-1.48-.53-1.96-.58.17-.17.62-.56,1.29-.67.55-.09,1,.05,1.21.14.41.12.96.33,1.55.74.84.59,1.35,1.31,1.63,1.76.01-.37,0-1.02-.29-1.74-.43-1.09-1.2-1.64-1.49-1.83.33.03,1.33.18,2.18,1.07.58.6.83,1.28.94,1.64.27-.56.76-1.4,1.57-2.19.8-.79,1.6-1.22,2.13-1.46.17-.11.46-.26.84-.32.53-.08.95.07,1.15.15-.46.23-1,.56-1.57,1.02-.33.27-.61.55-.86.81-.19.27-.4.63-.58,1.06-.27.64-.39,1.23-.45,1.66.16-.23.62-.83,1.43-1.11.98-.34,1.81.02,2.03.12-.26.08-1.02.35-1.61,1.19-.5.72-.59,1.45-.62,1.76.41-.25.99-.55,1.73-.7,1.44-.3,2.62.09,3.17.33-.48.07-1.51.31-2.46,1.19-.53.49-.86,1.02-1.07,1.41-.06.12-.21.46-.15.9.11.72.73,1.03.78,1.05h-8.58Z"/>
    <g>
      <rect class="cls-11" x="605.06" y="600.42" width="5.68" height="65.87" rx="2.84" ry="2.84"/>
      <path class="cls-11" d="m598.41,649.76h-9.15c-1.15,0-2.14.69-2.59,1.68.71,2.32,2.87,4,5.43,4h6.31c1.57,0,2.84-1.27,2.84-2.84s-1.27-2.84-2.84-2.84Z"/>
      <path class="cls-11" d="m592.1,646.32v3.44h3.44c-1.9,0-3.44-1.54-3.44-3.44Z"/>
      <path class="cls-11" d="m589.26,634.31c-1.57,0-2.84,1.27-2.84,2.84v12.61c0,2.55,1.69,4.71,4,5.43.99-.44,1.68-1.44,1.68-2.59v-15.45c0-1.57-1.27-2.84-2.84-2.84Z"/>
      <path class="cls-11" d="m607.91,639.32h9.15c1.15,0,2.14.69,2.59,1.68-.71,2.32-2.87,4-5.43,4h-6.31c-1.57,0-2.84-1.27-2.84-2.84s1.27-2.84,2.84-2.84Z"/>
      <path class="cls-11" d="m614.22,635.88v3.44h-3.44c1.9,0,3.44-1.54,3.44-3.44Z"/>
      <path class="cls-11" d="m617.06,623.87c1.57,0,2.84,1.27,2.84,2.84v12.61c0,2.55-1.69,4.71-4,5.43-.99-.44-1.68-1.44-1.68-2.59v-15.45c0-1.57,1.27-2.84,2.84-2.84Z"/>
      <path class="cls-11" d="m607.86,629.27h-9.15c-1.15,0-2.14.69-2.59,1.68.71,2.32,2.87,4,5.43,4h6.31c1.57,0,2.84-1.27,2.84-2.84s-1.27-2.84-2.84-2.84Z"/>
      <path class="cls-11" d="m601.55,625.83v3.44h3.44c-1.9,0-3.44-1.54-3.44-3.44Z"/>
      <path class="cls-11" d="m598.71,613.82c-1.57,0-2.84,1.27-2.84,2.84v12.61c0,2.55,1.69,4.71,4,5.43.99-.44,1.68-1.44,1.68-2.59v-15.45c0-1.57-1.27-2.84-2.84-2.84Z"/>
      <path class="cls-11" d="m598.66,649.76h9.15c1.15,0,2.14.69,2.59,1.68-.71,2.32-2.87,4-5.43,4h-6.31c-1.57,0-2.84-1.27-2.84-2.84s1.27-2.84,2.84-2.84Z"/>
    </g>
    <path class="cls-11" d="m1078.75,752.28h-9.88c-.12-.38-.38-.97-.92-1.53-1.04-1.07-2.36-1.2-2.73-1.23.5-.15,1.47-.36,2.65-.14.93.17,1.62.54,2.03.81-.21-.59-.63-1.54-1.45-2.48-.81-.93-1.67-1.46-2.23-1.75.69.2,1.51.5,2.39.95.92.46,1.67.97,2.26,1.42-.05-.44-.18-1.09-.58-1.75-.93-1.54-2.54-1.97-2.92-2.06.37-.08,1.63-.29,2.9.42,1.93,1.07,2.13,3.29,2.14,3.48.03-.43.17-1.89,1.34-3.17,1.07-1.18,2.37-1.5,2.81-1.59-.45.37-1.45,1.29-1.95,2.84-.33,1.02-.31,1.91-.25,2.45.22-.42,1.04-1.82,2.78-2.53,2.21-.91,4.18-.02,4.51.14-.5.02-2.11.15-3.48,1.39-.81.73-1.2,1.55-1.39,2.03.64-.39,1.62-.87,2.9-1.11,2.1-.39,3.81.1,4.62.39-.74.04-2.33.23-3.87,1.34-.79.57-1.33,1.21-1.67,1.7Z"/>
    <g>
      <rect class="cls-11" x="1562.64" y="706.91" width="5.68" height="51.79" rx="2.84" ry="2.84" transform="translate(3130.96 1465.61) rotate(180)"/>
      <path class="cls-11" d="m1565.48,734.82h9.15c1.15,0,2.14.69,2.59,1.68-.71,2.32-2.87,4-5.43,4h-6.31c-1.57,0-2.84-1.27-2.84-2.84s1.27-2.84,2.84-2.84Z"/>
      <path class="cls-11" d="m1571.78,731.38v3.44h-3.44c1.9,0,3.44-1.54,3.44-3.44Z"/>
      <path class="cls-11" d="m1574.62,719.37c1.57,0,2.84,1.27,2.84,2.84v12.61c0,2.55-1.69,4.71-4,5.43-.99-.44-1.68-1.44-1.68-2.59v-15.45c0-1.57,1.27-2.84,2.84-2.84Z"/>
      <path class="cls-11" d="m1565.48,742.55h-9.15c-1.15,0-2.14.69-2.59,1.68.71,2.32,2.87,4,5.43,4h6.31c1.57,0,2.84-1.27,2.84-2.84s-1.27-2.84-2.84-2.84Z"/>
      <path class="cls-11" d="m1559.17,739.11v3.44h3.44c-1.9,0-3.44-1.54-3.44-3.44Z"/>
      <path class="cls-11" d="m1556.33,727.1c-1.57,0-2.84,1.27-2.84,2.84v12.61c0,2.55,1.69,4.71,4,5.43.99-.44,1.68-1.44,1.68-2.59v-15.45c0-1.57-1.27-2.84-2.84-2.84Z"/>
    </g>
    <g>
      <rect class="cls-11" x="918.47" y="661.64" width="5.68" height="65.87" rx="2.84" ry="2.84"/>
      <path class="cls-11" d="m921.29,711.11h-9.15c-1.15,0-2.14.69-2.59,1.68.71,2.32,2.87,4,5.43,4h6.31c1.57,0,2.84-1.27,2.84-2.84s-1.27-2.84-2.84-2.84Z"/>
      <path class="cls-11" d="m914.99,707.67v3.44h3.44c-1.9,0-3.44-1.54-3.44-3.44Z"/>
      <path class="cls-11" d="m912.15,695.66c-1.57,0-2.84,1.27-2.84,2.84v12.61c0,2.55,1.69,4.71,4,5.43.99-.44,1.68-1.44,1.68-2.59v-15.45c0-1.57-1.27-2.84-2.84-2.84Z"/>
      <path class="cls-11" d="m921.32,700.55h9.15c1.15,0,2.14.69,2.59,1.68-.71,2.32-2.87,4-5.43,4h-6.31c-1.57,0-2.84-1.27-2.84-2.84s1.27-2.84,2.84-2.84Z"/>
      <path class="cls-11" d="m927.63,697.11v3.44h-3.44c1.9,0,3.44-1.54,3.44-3.44Z"/>
      <path class="cls-11" d="m930.47,685.09c1.57,0,2.84,1.27,2.84,2.84v12.61c0,2.55-1.69,4.71-4,5.43-.99-.44-1.68-1.44-1.68-2.59v-15.45c0-1.57,1.27-2.84,2.84-2.84Z"/>
      <path class="cls-11" d="m921.28,684.65h-9.15c-1.15,0-2.14.69-2.59,1.68.71,2.32,2.87,4,5.43,4h6.31c1.57,0,2.84-1.27,2.84-2.84s-1.27-2.84-2.84-2.84Z"/>
      <path class="cls-11" d="m914.97,681.21v3.44h3.44c-1.9,0-3.44-1.54-3.44-3.44Z"/>
      <path class="cls-11" d="m912.13,669.2c-1.57,0-2.84,1.27-2.84,2.84v12.61c0,2.55,1.69,4.71,4,5.43.99-.44,1.68-1.44,1.68-2.59v-15.45c0-1.57-1.27-2.84-2.84-2.84Z"/>
    </g>
    <g>
      <rect class="cls-11" x="198.47" y="616.83" width="5.68" height="65.87" rx="2.84" ry="2.84" transform="translate(402.62 1299.52) rotate(180)"/>
      <path class="cls-11" d="m201.32,666.3h9.15c1.15,0,2.14.69,2.59,1.68-.71,2.32-2.87,4-5.43,4h-6.31c-1.57,0-2.84-1.27-2.84-2.84s1.27-2.84,2.84-2.84Z"/>
      <path class="cls-11" d="m207.63,662.86v3.44h-3.44c1.9,0,3.44-1.54,3.44-3.44Z"/>
      <path class="cls-11" d="m210.47,650.84c1.57,0,2.84,1.27,2.84,2.84v12.61c0,2.55-1.69,4.71-4,5.43-.99-.44-1.68-1.44-1.68-2.59v-15.45c0-1.57,1.27-2.84,2.84-2.84Z"/>
      <path class="cls-11" d="m201.3,655.73h-9.15c-1.15,0-2.14.69-2.59,1.68.71,2.32,2.87,4,5.43,4h6.31c1.57,0,2.84-1.27,2.84-2.84,0-1.57-1.27-2.84-2.84-2.84Z"/>
      <path class="cls-11" d="m194.99,652.29v3.44s3.44,0,3.44,0c-1.9,0-3.44-1.54-3.44-3.44Z"/>
      <path class="cls-11" d="m192.15,640.28c-1.57,0-2.84,1.27-2.84,2.84v12.61c0,2.55,1.69,4.71,4,5.43.99-.44,1.68-1.44,1.68-2.59v-15.45c0-1.57-1.27-2.84-2.84-2.84Z"/>
      <path class="cls-11" d="m201.33,639.84h9.15c1.15,0,2.14.69,2.59,1.68-.71,2.32-2.87,4-5.43,4h-6.31c-1.57,0-2.84-1.27-2.84-2.84s1.27-2.84,2.84-2.84Z"/>
      <path class="cls-11" d="m207.64,636.4v3.44h-3.44c1.9,0,3.44-1.54,3.44-3.44Z"/>
      <path class="cls-11" d="m210.48,624.38c1.57,0,2.84,1.27,2.84,2.84v12.61c0,2.55-1.69,4.71-4,5.43-.99-.44-1.68-1.44-1.68-2.59v-15.45c0-1.57,1.27-2.84,2.84-2.84Z"/>
    </g>
    <path class="cls-11" d="m417.87,723.06c-.06-.46-.3-1.76-1.31-2.9-1.01-1.15-2.18-1.45-2.59-1.53.56-.07,1.49-.12,2.59.22,1.09.33,1.86.89,2.31,1.26-.16-.68-.44-1.59-1-2.53-.28-.47-.57-.86-.84-1.18-.28-.25-.65-.52-1.11-.76-.77-.4-1.48-.53-1.96-.58.17-.17.62-.56,1.29-.67.55-.09,1,.05,1.21.14.41.12.96.33,1.55.74.84.59,1.35,1.31,1.63,1.76.01-.37,0-1.02-.29-1.74-.43-1.09-1.2-1.64-1.49-1.83.33.03,1.33.18,2.18,1.07.58.6.83,1.28.94,1.64.27-.56.76-1.4,1.57-2.19.8-.79,1.6-1.22,2.13-1.46.17-.11.46-.26.84-.32.53-.08.95.07,1.15.15-.46.23-1,.56-1.57,1.02-.33.27-.61.55-.86.81-.19.27-.4.63-.58,1.06-.27.64-.39,1.23-.45,1.66.16-.23.62-.83,1.43-1.11.98-.34,1.81.02,2.03.12-.26.08-1.02.35-1.61,1.19-.5.72-.59,1.45-.62,1.76.41-.25.99-.55,1.73-.7,1.44-.3,2.62.09,3.17.33-.48.07-1.51.31-2.46,1.19-.53.49-.86,1.02-1.07,1.41-.06.12-.21.46-.15.9.11.72.73,1.03.78,1.05h-8.58Z"/>
    <path class="cls-11" d="m1794.57,704.35c-.06-.46-.3-1.76-1.31-2.9-1.01-1.15-2.18-1.45-2.59-1.53.56-.07,1.49-.12,2.59.22,1.09.33,1.86.89,2.31,1.26-.16-.68-.44-1.59-1-2.53-.28-.47-.57-.86-.84-1.18-.28-.25-.65-.52-1.11-.76-.77-.4-1.48-.53-1.96-.58.17-.17.62-.56,1.29-.67.55-.09,1,.05,1.21.14.41.12.96.33,1.55.74.84.59,1.35,1.31,1.63,1.76.01-.37,0-1.02-.29-1.74-.43-1.09-1.2-1.64-1.49-1.83.33.03,1.33.18,2.18,1.07.58.6.83,1.28.94,1.64.27-.56.76-1.4,1.57-2.19.8-.79,1.6-1.22,2.13-1.46.17-.11.46-.26.84-.32.53-.08.95.07,1.15.15-.46.23-1,.56-1.57,1.02-.33.27-.61.55-.86.81-.19.27-.4.63-.58,1.06-.27.64-.39,1.23-.45,1.66.16-.23.62-.83,1.43-1.11.98-.34,1.81.02,2.03.12-.26.08-1.02.35-1.61,1.19-.5.72-.59,1.45-.62,1.76.41-.25.99-.55,1.73-.7,1.44-.3,2.62.09,3.17.33-.48.07-1.51.31-2.46,1.19-.53.49-.86,1.02-1.07,1.41-.06.12-.21.46-.15.9.11.72.73,1.03.78,1.05h-8.58Z"/>
  </g>
  <g id="FIRST_PLAN" data-name="FIRST PLAN">
    <path class="cls-9" d="m1779.72,857.26c-5.62.18-10.98-.09-10.98-.09,0,0,0,0,0,0-7.2-.59-13.05-2.15-17.54-3.55-35.66-11.09-48.21-43.78-110.88-48.45-59.39-4.42-90.13,21.81-144.12,9.05-7.25-1.71-27.88-8.75-55.56-6.06-12.66,1.23-26.18,3.16-40.4,6.06-37.88,7.71-69.74,20.03-94.95,32.32-14.66,5.74-54.06,18.91-102.02,7.07-34.37-8.49-57.83-26.04-69.7-36.36-8.54-6.21-32.52-21.9-66.67-22.22-43.32-.41-108.46,43.19-135.35,41.41-35.67-2.36-48.97-16.03-76.59-22.67-10.46-2.51-20.23-3.44-30.48-3.6-15.14-.23-51.7,2.44-95.96,40.4-17.64,11.62-48.62,28.26-89.9,32.32-29.44,2.9-52.94-2.25-65.66-5.05-39.3-8.65-44.27-20.02-81.59-30.56-14.7-4.15-49.95-14.1-89.62-7.66-47.6,7.73-56.29,31.71-92.68,39.83-27.2,6.07-67.8,2.8-125.62-39.83-18.62-9.06-58.35-25.13-108.77-19.91-12.29,1.27-50.36,5.21-74.7,24.51v235.77h1920v-258.49c-20.26,8.73-37.77,14.78-50.91,18.89,0,0-49.84,15.58-89.36,16.85Z"/>
    <g id="_1st_Plan_Vegs" data-name="1st Plan Vegs">
      <g>
        <rect class="cls-9" x="1342.23" y="681.35" width="17.36" height="158.3" rx="8.68" ry="8.68" transform="translate(2701.83 1521) rotate(180)"/>
        <path class="cls-9" d="m1350.91,766.67h27.96c3.52,0,6.55,2.1,7.91,5.12-2.19,7.09-8.79,12.24-16.59,12.24h-19.28c-4.79,0-8.68-3.89-8.68-8.68,0-4.79,3.89-8.68,8.68-8.68Z"/>
        <path class="cls-9" d="m1370.19,756.16v10.52h-10.52c5.81,0,10.52-4.71,10.52-10.52Z"/>
        <path class="cls-9" d="m1378.87,719.44c4.79,0,8.68,3.89,8.68,8.68v38.55c0,7.81-5.15,14.41-12.24,16.59-3.02-1.36-5.12-4.39-5.12-7.91v-47.23c0-4.79,3.89-8.68,8.68-8.68Z"/>
        <path class="cls-9" d="m1350.91,790.29h-27.96c-3.52,0-6.55,2.1-7.91,5.12,2.19,7.09,8.79,12.24,16.59,12.24h19.28c4.79,0,8.68-3.89,8.68-8.68s-3.89-8.68-8.68-8.68Z"/>
        <path class="cls-9" d="m1331.64,779.77v10.52h10.52c-5.81,0-10.52-4.71-10.52-10.52Z"/>
        <path class="cls-9" d="m1322.96,743.06c-4.79,0-8.68,3.89-8.68,8.68v38.55c0,7.81,5.15,14.41,12.24,16.59,3.02-1.36,5.12-4.39,5.12-7.91v-47.23c0-4.79-3.89-8.68-8.68-8.68Z"/>
      </g>
      <g>
        <rect class="cls-9" x="1033" y="606.71" width="17.36" height="201.34" rx="8.68" ry="8.68" transform="translate(2083.36 1414.76) rotate(-180)"/>
        <path class="cls-9" d="m1070.7,757.54h27.96c3.52,0,6.55,2.1,7.91,5.12-2.19,7.09-8.79,12.24-16.59,12.24h-19.28c-4.79,0-8.68-3.89-8.68-8.68,0-4.79,3.89-8.68,8.68-8.68Z"/>
        <path class="cls-9" d="m1089.98,747.02v10.52h-10.52c5.81,0,10.52-4.71,10.52-10.52Z"/>
        <path class="cls-9" d="m1098.66,710.31c4.79,0,8.68,3.89,8.68,8.68v38.55c0,7.81-5.15,14.41-12.24,16.59-3.02-1.36-5.12-4.39-5.12-7.91v-47.23c0-4.79,3.89-8.68,8.68-8.68Z"/>
        <path class="cls-9" d="m1041.64,725.63h-27.96c-3.52,0-6.55,2.1-7.91,5.12,2.19,7.09,8.79,12.24,16.59,12.24h19.28c4.79,0,8.68-3.89,8.68-8.68s-3.89-8.68-8.68-8.68Z"/>
        <path class="cls-9" d="m1022.37,715.11v10.52h10.52c-5.81,0-10.52-4.71-10.52-10.52Z"/>
        <path class="cls-9" d="m1013.69,678.39c-4.79,0-8.68,3.89-8.68,8.68v38.55c0,7.81,5.15,14.41,12.24,16.59,3.02-1.36,5.12-4.39,5.12-7.91v-47.23c0-4.79-3.89-8.68-8.68-8.68Z"/>
        <path class="cls-9" d="m1041.8,694.92h27.96c3.52,0,6.55,2.1,7.91,5.12-2.19,7.09-8.79,12.24-16.59,12.24h-19.28c-4.79,0-8.68-3.89-8.68-8.68,0-4.79,3.89-8.68,8.68-8.68Z"/>
        <path class="cls-9" d="m1061.08,684.41v10.52h-10.52c5.81,0,10.52-4.71,10.52-10.52Z"/>
        <path class="cls-9" d="m1069.76,647.69c4.79,0,8.68,3.89,8.68,8.68v38.55c0,7.81-5.15,14.41-12.24,16.59-3.02-1.36-5.12-4.39-5.12-7.91v-47.23c0-4.79,3.89-8.68,8.68-8.68Z"/>
        <path class="cls-9" d="m1069.91,757.54h-27.96c-3.52,0-6.55,2.1-7.91,5.12,2.19,7.09,8.79,12.24,16.59,12.24h19.28c4.79,0,8.68-3.89,8.68-8.68s-3.89-8.68-8.68-8.68Z"/>
      </g>
      <g>
        <rect class="cls-9" x="593.36" y="695.96" width="17.36" height="201.34" rx="8.68" ry="8.68" transform="translate(1204.09 1593.25) rotate(-180)"/>
        <path class="cls-9" d="m602.08,847.17h27.96c3.52,0,6.55,2.1,7.91,5.12-2.19,7.09-8.79,12.24-16.59,12.24h-19.28c-4.79,0-8.68-3.89-8.68-8.68,0-4.79,3.89-8.68,8.68-8.68Z"/>
        <path class="cls-9" d="m621.36,836.65v10.52h-10.52c5.81,0,10.52-4.71,10.52-10.52Z"/>
        <path class="cls-9" d="m630.04,799.94c4.79,0,8.68,3.89,8.68,8.68v38.55c0,7.81-5.15,14.41-12.24,16.59-3.02-1.36-5.12-4.39-5.12-7.91v-47.23c0-4.79,3.89-8.68,8.68-8.68Z"/>
        <path class="cls-9" d="m602,814.87h-27.96c-3.52,0-6.55,2.1-7.91,5.12,2.19,7.09,8.79,12.24,16.59,12.24h19.28c4.79,0,8.68-3.89,8.68-8.68s-3.89-8.68-8.68-8.68Z"/>
        <path class="cls-9" d="m582.73,804.36v10.52s10.52,0,10.52,0c-5.81,0-10.52-4.71-10.52-10.52Z"/>
        <path class="cls-9" d="m574.05,767.64c-4.79,0-8.68,3.89-8.68,8.68v38.55c0,7.81,5.15,14.41,12.24,16.59,3.02-1.36,5.12-4.39,5.12-7.91v-47.23c0-4.79-3.89-8.68-8.68-8.68Z"/>
        <path class="cls-9" d="m602.12,766.29h27.96c3.52,0,6.55,2.1,7.91,5.12-2.19,7.09-8.79,12.24-16.59,12.24h-19.28c-4.79,0-8.68-3.89-8.68-8.68s3.89-8.68,8.68-8.68Z"/>
        <path class="cls-9" d="m621.4,755.78v10.52h-10.52c5.81,0,10.52-4.71,10.52-10.52Z"/>
        <path class="cls-9" d="m630.08,719.06c4.79,0,8.68,3.89,8.68,8.68v38.55c0,7.81-5.15,14.41-12.24,16.59-3.02-1.36-5.12-4.39-5.12-7.91v-47.23c0-4.79,3.89-8.68,8.68-8.68Z"/>
      </g>
      <path class="cls-9" d="m1441.47,815.62c-.19-1.39-.91-5.37-3.99-8.88-3.09-3.51-6.67-4.43-7.92-4.68,1.71-.22,4.57-.36,7.91.66,3.32,1.01,5.7,2.71,7.06,3.86-.47-2.08-1.35-4.85-3.04-7.74-.84-1.44-1.73-2.63-2.55-3.6-.86-.75-1.98-1.6-3.38-2.33-2.36-1.23-4.52-1.63-6-1.76.53-.52,1.89-1.71,3.96-2.05,1.69-.27,3.04.16,3.7.42,1.24.36,2.94,1.01,4.72,2.26,2.58,1.8,4.14,4,4.98,5.39.04-1.13-.02-3.12-.89-5.32-1.32-3.34-3.66-5.02-4.55-5.6,1.01.1,4.05.55,6.66,3.27,1.77,1.85,2.54,3.91,2.87,5.01.83-1.71,2.31-4.27,4.79-6.71,2.45-2.41,4.88-3.73,6.51-4.45.52-.34,1.4-.81,2.55-.99,1.61-.25,2.9.2,3.51.47-1.41.71-3.07,1.72-4.79,3.13-1.01.83-1.88,1.67-2.62,2.47-.58.83-1.22,1.91-1.79,3.25-.83,1.96-1.19,3.76-1.36,5.08.49-.71,1.89-2.53,4.36-3.39,3-1.04,5.53.06,6.19.38-.79.24-3.13,1.08-4.91,3.65-1.52,2.19-1.82,4.45-1.89,5.39,1.25-.78,3.03-1.67,5.28-2.14,4.39-.92,8,.29,9.7,1.01-1.48.23-4.61.94-7.53,3.65-1.61,1.5-2.63,3.11-3.26,4.31-.18.36-.65,1.42-.45,2.75.34,2.2,2.22,3.15,2.38,3.22h-26.21Z"/>
      <path class="cls-9" d="m834.1,813.13h-30.21c-.38-1.15-1.16-2.98-2.81-4.68-3.17-3.27-7.2-3.67-8.34-3.74,1.53-.45,4.48-1.09,8.09-.43,2.85.53,4.96,1.66,6.21,2.47-.64-1.82-1.91-4.7-4.43-7.57-2.47-2.84-5.11-4.48-6.81-5.36,2.11.62,4.62,1.53,7.32,2.89,2.8,1.42,5.1,2.96,6.89,4.34-.15-1.33-.56-3.32-1.79-5.36-2.83-4.71-7.76-6.02-8.94-6.3,1.13-.23,4.98-.88,8.85,1.28,5.89,3.28,6.51,10.07,6.55,10.64.08-1.31.51-5.78,4.09-9.7,3.29-3.61,7.25-4.58,8.6-4.85-1.39,1.13-4.44,3.95-5.96,8.68-1,3.11-.94,5.83-.77,7.49.69-1.29,3.18-5.56,8.51-7.74,6.75-2.77,12.78-.05,13.79.43-1.54.06-6.45.46-10.64,4.26-2.46,2.23-3.67,4.72-4.26,6.21,1.94-1.18,4.94-2.67,8.85-3.4,6.41-1.21,11.64.29,14.13,1.19-2.27.12-7.13.7-11.83,4.09-2.42,1.74-4.06,3.69-5.11,5.19Z"/>
      <path class="cls-9" d="m462.74,842.91c.19-1.39.91-5.37,3.99-8.88,3.09-3.51,6.67-4.43,7.92-4.68-1.71-.22-4.57-.36-7.91.66-3.32,1.01-5.7,2.71-7.06,3.86.47-2.08,1.35-4.85,3.04-7.74.84-1.44,1.73-2.63,2.55-3.6.86-.75,1.98-1.6,3.38-2.33,2.36-1.23,4.52-1.63,6-1.76-.53-.52-1.89-1.71-3.96-2.05-1.69-.27-3.04.16-3.7.42-1.24.36-2.94,1.01-4.72,2.26-2.58,1.8-4.14,4-4.98,5.39-.04-1.13.02-3.12.89-5.32,1.32-3.34,3.66-5.02,4.55-5.6-1.01.1-4.05.55-6.66,3.27-1.77,1.85-2.54,3.91-2.87,5.01-.83-1.71-2.31-4.27-4.79-6.71-2.45-2.41-4.88-3.73-6.51-4.45-.52-.34-1.4-.81-2.55-.99-1.61-.25-2.9.2-3.51.47,1.41.71,3.07,1.72,4.79,3.13,1.01.83,1.88,1.67,2.62,2.47.58.83,1.22,1.91,1.79,3.25.83,1.96,1.19,3.76,1.36,5.08-.49-.71-1.89-2.53-4.36-3.39-3-1.04-5.53.06-6.19.38.79.24,3.13,1.08,4.91,3.65,1.52,2.19,1.82,4.45,1.89,5.39-1.25-.78-3.03-1.67-5.28-2.14-4.39-.92-8,.29-9.7,1.01,1.48.23,4.61.94,7.53,3.65,1.61,1.5,2.63,3.11,3.26,4.31.18.36.65,1.42.45,2.75-.34,2.2-2.22,3.15-2.38,3.22h26.21Z"/>
      <path class="cls-9" d="m1788.49,859.34h-30.21c-.38-1.15-1.16-2.98-2.81-4.68-3.17-3.27-7.2-3.67-8.34-3.74,1.53-.45,4.48-1.09,8.09-.43,2.85.53,4.96,1.66,6.21,2.47-.64-1.82-1.91-4.7-4.43-7.57-2.47-2.84-5.11-4.48-6.81-5.36,2.11.62,4.62,1.53,7.32,2.89,2.8,1.42,5.1,2.96,6.89,4.34-.15-1.33-.56-3.32-1.79-5.36-2.83-4.71-7.76-6.02-8.94-6.3,1.13-.23,4.98-.88,8.85,1.28,5.89,3.28,6.51,10.07,6.55,10.64.08-1.31.51-5.78,4.09-9.7,3.29-3.61,7.25-4.58,8.6-4.85-1.39,1.13-4.44,3.95-5.96,8.68-1,3.11-.94,5.83-.77,7.49.69-1.29,3.18-5.56,8.51-7.74,6.75-2.77,12.78-.05,13.79.43-1.54.06-6.45.46-10.64,4.26-2.46,2.23-3.67,4.72-4.26,6.21,1.94-1.18,4.94-2.67,8.85-3.4,6.41-1.21,11.64.29,14.13,1.19-2.27.12-7.13.7-11.83,4.09-2.42,1.74-4.06,3.69-5.11,5.19Z"/>
      <g>
        <rect class="cls-9" x="1671.21" y="628.27" width="17.36" height="201.34" rx="8.68" ry="8.68"/>
        <path class="cls-9" d="m1679.85,779.48h-27.96c-3.52,0-6.55,2.1-7.91,5.12,2.19,7.09,8.79,12.24,16.59,12.24h19.28c4.79,0,8.68-3.89,8.68-8.68s-3.89-8.68-8.68-8.68Z"/>
        <path class="cls-9" d="m1660.58,768.96v10.52h10.52c-5.81,0-10.52-4.71-10.52-10.52Z"/>
        <path class="cls-9" d="m1651.9,732.25c-4.79,0-8.68,3.89-8.68,8.68v38.55c0,7.81,5.15,14.41,12.24,16.59,3.02-1.36,5.12-4.39,5.12-7.91v-47.23c0-4.79-3.89-8.68-8.68-8.68Z"/>
        <path class="cls-9" d="m1679.93,747.18h27.96c3.52,0,6.55,2.1,7.91,5.12-2.19,7.09-8.79,12.24-16.59,12.24h-19.28c-4.79,0-8.68-3.89-8.68-8.68,0-4.79,3.89-8.68,8.68-8.68Z"/>
        <path class="cls-9" d="m1699.21,736.67v10.52h-10.52c5.81,0,10.52-4.71,10.52-10.52Z"/>
        <path class="cls-9" d="m1707.89,699.95c4.79,0,8.68,3.89,8.68,8.68v38.55c0,7.81-5.15,14.41-12.24,16.59-3.02-1.36-5.12-4.39-5.12-7.91v-47.23c0-4.79,3.89-8.68,8.68-8.68Z"/>
        <path class="cls-9" d="m1679.81,698.61h-27.96c-3.52,0-6.55,2.1-7.91,5.12,2.19,7.09,8.79,12.24,16.59,12.24h19.28c4.79,0,8.68-3.89,8.68-8.68s-3.89-8.68-8.68-8.68Z"/>
        <path class="cls-9" d="m1660.54,688.09v10.52h10.52c-5.81,0-10.52-4.71-10.52-10.52Z"/>
        <path class="cls-9" d="m1651.86,651.37c-4.79,0-8.68,3.89-8.68,8.68v38.55c0,7.81,5.15,14.41,12.24,16.59,3.02-1.36,5.12-4.39,5.12-7.91v-47.23c0-4.79-3.89-8.68-8.68-8.68Z"/>
      </g>
      <g>
        <rect class="cls-9" x="274.87" y="729.92" width="17.36" height="158.3" rx="8.68" ry="8.68"/>
        <path class="cls-9" d="m283.55,815.24h-27.96c-3.52,0-6.55,2.1-7.91,5.12,2.19,7.09,8.79,12.24,16.59,12.24h19.28c4.79,0,8.68-3.89,8.68-8.68,0-4.79-3.89-8.68-8.68-8.68Z"/>
        <path class="cls-9" d="m264.28,804.72v10.52s10.52,0,10.52,0c-5.81,0-10.52-4.71-10.52-10.52Z"/>
        <path class="cls-9" d="m255.6,768.01c-4.79,0-8.68,3.89-8.68,8.68v38.55c0,7.81,5.15,14.41,12.24,16.59,3.02-1.36,5.12-4.39,5.12-7.91v-47.23c0-4.79-3.89-8.68-8.68-8.68Z"/>
        <path class="cls-9" d="m283.55,838.86h27.96c3.52,0,6.55,2.1,7.91,5.12-2.19,7.09-8.79,12.24-16.59,12.24h-19.28c-4.79,0-8.68-3.89-8.68-8.68s3.89-8.68,8.68-8.68Z"/>
        <path class="cls-9" d="m302.83,828.34v10.52h-10.52c5.81,0,10.52-4.71,10.52-10.52Z"/>
        <path class="cls-9" d="m311.51,791.62c4.79,0,8.68,3.89,8.68,8.68v38.55c0,7.81-5.15,14.41-12.24,16.59-3.02-1.36-5.12-4.39-5.12-7.91v-47.23c0-4.79,3.89-8.68,8.68-8.68Z"/>
      </g>
      <path class="cls-9" d="m47.13,825.71c-.19-1.39-.91-5.37-3.99-8.88-3.09-3.51-6.67-4.43-7.92-4.68,1.71-.22,4.57-.36,7.91.66,3.32,1.01,5.7,2.71,7.06,3.86-.47-2.08-1.35-4.85-3.04-7.74-.84-1.44-1.73-2.63-2.55-3.6-.86-.75-1.98-1.6-3.38-2.33-2.36-1.23-4.52-1.63-6-1.76.53-.52,1.89-1.71,3.96-2.05,1.69-.27,3.04.16,3.7.42,1.24.36,2.94,1.01,4.72,2.26,2.58,1.8,4.14,4,4.98,5.39.04-1.13-.02-3.12-.89-5.32-1.32-3.34-3.66-5.02-4.55-5.6,1.01.1,4.05.55,6.66,3.27,1.77,1.85,2.54,3.91,2.87,5.01.83-1.71,2.31-4.27,4.79-6.71,2.45-2.41,4.88-3.73,6.51-4.45.52-.34,1.4-.81,2.55-.99,1.61-.25,2.9.2,3.51.47-1.41.71-3.07,1.72-4.79,3.13-1.01.83-1.88,1.67-2.62,2.47-.58.83-1.22,1.91-1.79,3.25-.83,1.96-1.19,3.76-1.36,5.08.49-.71,1.89-2.53,4.36-3.39,3-1.04,5.53.06,6.19.38-.79.24-3.13,1.08-4.91,3.65-1.52,2.19-1.82,4.45-1.89,5.39,1.25-.78,3.03-1.67,5.28-2.14,4.39-.92,8,.29,9.7,1.01-1.48.23-4.61.94-7.53,3.65-1.61,1.5-2.63,3.11-3.26,4.31-.18.36-.65,1.42-.45,2.75.34,2.2,2.22,3.15,2.38,3.22-8.74,0-17.48,0-26.21,0Z"/>
    </g>
  </g>
</svg>