<?xml version="1.0" encoding="UTF-8"?>
<svg xmlns="http://www.w3.org/2000/svg" viewBox="0 0 2000 2000">
  <defs>
    <style>
      .cls-1 {
        letter-spacing: 0em;
      }

      .cls-2, .cls-3 {
        fill: #fff;
      }

      .cls-4 {
        letter-spacing: -.06em;
      }

      .cls-3 {
        font-family: Raleway-SemiBoldItalic, Raleway;
        font-size: 72px;
        font-style: italic;
        font-weight: 600;
      }

      .cls-5 {
        letter-spacing: 0em;
      }

      .cls-6 {
        letter-spacing: 0em;
      }

      .cls-7 {
        letter-spacing: -.02em;
      }

      .cls-8 {
        letter-spacing: 0em;
      }

      .cls-9 {
        letter-spacing: -.08em;
      }

      .cls-10 {
        letter-spacing: -.01em;
      }
    </style>
  </defs>
  <g id="MAIN">
    <path class="cls-2" d="M1235.5,865.5c-49.7-39.84-102.86-46.51-124-48-38.17-.17-76.33-.33-114.5-.5-30,49.33-60,98.67-90,148-30.33-49.33-60.67-98.67-91-148h-85c44.57,72.43,89.14,144.86,133.71,217.29-44.4,72.4-88.8,144.8-133.21,217.21h84c75.5-122.83,151-245.67,226.5-368.5h6c2.33,0,4.67,0,7,0,1.67,0,3.33,0,5,0h16c40.52,.03,66,8,66,8,19.89,6.24,33.38,14.79,37.5,17.5,3.48,2.29,14.81,10,27,23,6.45,6.88,26.42,29.42,36,61,13.08,43.11,4.37,95.07-26,134-30.62,39.25-72.26,50.96-85,54-16.24,3.87-30.27,4.32-40,4-43.17-.17-86.33-.33-129.5-.5,57.67-94,115.33-188,173-282-1.01-.21-2.78-.58-5-1-9.5-1.82-24.52-4.63-43-5t-2.73,0c-2.76,0-5.52,0-8.27,0-1.13,0-18.61,0-22,0-72.17,118.5-144.33,237-216.5,355.5,89.33,0,178.67,0,268,0,3.52-.11,8.73-.35,15-1,57.82-5.95,98.1-34.63,108-42,34.15-25.43,53.23-55.32,63-74,17.99-34.4,22.56-65.42,24-81,4.7-50.97-9.98-89.82-16-104-5.69-13.4-23.5-51.54-64-84Z"/>
    <text class="cls-3" transform="translate(830.06 1356.81)"><tspan class="cls-4" x="0" y="0">W</tspan><tspan x="67.82" y="0">eb D</tspan><tspan class="cls-10" x="217.87" y="0">e</tspan><tspan class="cls-6" x="256.32" y="0">v</tspan><tspan x="292.82" y="0">e</tspan><tspan class="cls-8" x="332.06" y="0">l</tspan><tspan x="352.94" y="0">ope</tspan><tspan class="cls-7" x="477.72" y="0">r</tspan></text>
    <text class="cls-3" transform="translate(587.59 763.18)"><tspan class="cls-9" x="0" y="0">Y</tspan><tspan x="38.38" y="0">ann Du</tspan><tspan class="cls-5" x="274.75" y="0">r</tspan><tspan x="300.67" y="0">an</tspan><tspan class="cls-1" x="386.27" y="0">d</tspan><tspan class="cls-8" x="430.41" y="0">e</tspan><tspan x="469.36" y="0">t</tspan></text>
  </g>
  <g id="_" data-name="&amp;lt;&amp;gt;">
    <polygon class="cls-2" points="620.42 1251.5 704.42 1251.5 571.21 1034.29 704.92 817 619.92 817 530.92 963 487 1034.25 620.42 1251.5"/>
    <polygon class="cls-2" points="1364.99 1251.46 1280.99 1251.46 1414.19 1034.26 1280.49 816.96 1365.49 816.96 1454.49 962.96 1498.41 1034.21 1364.99 1251.46"/>
    <polygon class="cls-2" points="691.01 1454 607.01 1454 740.22 1236.79 824.4 1236.79 691.01 1454"/>
    <path class="cls-2" d="M1184.56,821.26c-3.1-1.24-7.3-2.87-12.33-4.69-4.72-1.7-8.11-2.93-12.77-4.34-7.78-2.36-14.03-3.72-17.11-4.34-6.18-1.26-11.18-1.94-14.04-2.3-6.39-.79-12.23-1.16-17.37-1.3,38.71-63.12,77.42-126.25,116.13-189.37h84.19c-42.24,68.78-84.47,137.55-126.71,206.33Z"/>
  </g>
</svg>