<?xml version="1.0" encoding="UTF-8"?>
<svg xmlns="http://www.w3.org/2000/svg" viewBox="0 0 853.11 739.72">
  <defs>
    <style>
      .cls-1 {
        fill: #fff;
      }

      .cls-2 {
        fill: #ffc56d;
      }

      .cls-3 {
        fill: #fa9656;
      }

      .cls-4 {
        fill: #e00;
      }

      .cls-5 {
        fill: #fa59d6;
      }

      .cls-6 {
        fill: #9060fd;
      }
    </style>
  </defs>
  <g id="WHITE_BACKGROUND" data-name="WHITE BACKGROUND">
    <path class="cls-1" d="m470.13,739.72L0,242.38v-58.57L122.55,25l118.47-10.72,159.32,135.83,123.57-125.11L598.59,0c14.94.11,29.88.21,44.81.32,38.47,29.84,76.94,59.69,115.4,89.53l94.3,153.53c-64.23,63.55-128.45,127.09-192.68,190.64-63.43,101.9-126.87,203.8-190.3,305.7Z"/>
  </g>
  <g id="MAIN">
    <polygon class="cls-4" points="241.02 202.19 376.85 348.23 529.02 117.42 614.81 378.87 478.98 479.98 458.55 689.34 265.53 491.21 241.02 202.19"/>
    <path class="cls-3" d="m241.02,202.19l-28.6-151.66h39.83l154.21,134.81,120-134.81c18.55-8,37.11-16,55.66-24-17.7,30.3-35.4,60.6-53.11,90.89l-152.17,230.81-135.83-146.04Z"/>
    <polygon class="cls-2" points="265.53 491.21 56.68 255.81 56.68 199.38 163.91 56.66 212.43 50.53 241.02 202.19 265.53 491.21"/>
    <path class="cls-5" d="m582.13,26.53c10.89-.51,21.79-1.02,32.68-1.53l107.74,97.53c28.09,42.21,56.17,84.43,84.26,126.64-64,43.23-128,86.47-192,129.7l-85.79-261.45c17.7-30.3,35.4-60.6,53.11-90.89Z"/>
    <polygon class="cls-6" points="458.8 686.81 632.17 420.74 806.81 249.17 614.81 378.87 478.98 479.98 458.8 686.81"/>
  </g>
</svg>