<?xml version="1.0" encoding="UTF-8"?>
<svg id="Calque_1" data-name="Calque 1" xmlns="http://www.w3.org/2000/svg" viewBox="0 0 853.11 739.72">
  <defs>
    <style>
      .cls-1 {
        fill: #fff;
      }

      .cls-2 {
        fill: #e7345d;
      }

      .cls-3 {
        fill: #452f3b;
      }

      .cls-4 {
        fill: #b8416d;
      }

      .cls-5 {
        fill: #7e435c;
      }

      .cls-6 {
        fill: #eb6768;
      }
    </style>
  </defs>
  <path class="cls-1" d="m470.13,739.72C313.42,573.94,156.71,408.16,0,242.38v-58.57L122.55,25l118.47-10.72,159.32,135.83,123.57-125.11L598.59,0c14.94.11,29.88.21,44.81.32,38.47,29.84,76.94,59.69,115.4,89.53l94.3,153.53c-64.23,63.55-128.45,127.09-192.68,190.64-63.43,101.9-126.87,203.8-190.3,305.7Z"/>
  <polygon class="cls-5" points="240.16 197.08 375.99 343.12 528.16 112.32 613.95 373.76 478.12 474.87 457.69 684.23 264.67 486.1 240.16 197.08"/>
  <path class="cls-4" d="m579.06,23.47c10.89-.51,21.79-1.02,32.68-1.53l107.74,97.53c28.09,42.21,56.17,84.43,84.26,126.64-64,43.23-128,86.47-192,129.7l-85.79-261.45c17.7-30.3,35.4-60.6,53.11-90.89Z"/>
  <path class="cls-2" d="m243.57,202.19l-28.6-151.66h39.83l154.21,134.81,120-134.81c16.68-9.02,33.36-18.04,50.04-27.06-15.83,31.32-31.66,62.64-47.49,93.96l-152.17,230.81-135.83-146.04Z"/>
  <polygon class="cls-6" points="269.11 491.21 60.26 255.81 60.26 199.38 167.49 56.66 216 50.53 244.6 202.19 269.11 491.21"/>
  <path class="cls-3" d="m457.69,684.23c57.14-89.19,114.28-178.38,171.41-267.57l174.64-171.57-192,129.7-135.83,101.11c-6.07,69.45-12.15,138.89-18.22,208.34Z"/>
</svg>