<?xml version="1.0" encoding="UTF-8"?>
<svg xmlns="http://www.w3.org/2000/svg" viewBox="0 0 2000 2000">
  <g id="MAIN">
    <path d="M1235.5,865.5c-49.7-39.84-102.86-46.51-124-48-38.17-.17-76.33-.33-114.5-.5-30,49.33-60,98.67-90,148-30.33-49.33-60.67-98.67-91-148h-85c44.57,72.43,89.14,144.86,133.71,217.29-44.4,72.4-88.8,144.8-133.21,217.21h84c75.5-122.83,151-245.67,226.5-368.5h6c2.33,0,4.67,0,7,0,1.67,0,3.33,0,5,0h16c40.52,.03,66,8,66,8,19.89,6.24,33.38,14.79,37.5,17.5,3.48,2.29,14.81,10,27,23,6.45,6.88,26.42,29.42,36,61,13.08,43.11,4.37,95.07-26,134-30.62,39.25-72.26,50.96-85,54-16.24,3.87-30.27,4.32-40,4-43.17-.17-86.33-.33-129.5-.5,57.67-94,115.33-188,173-282-1.01-.21-2.78-.58-5-1-9.5-1.82-24.52-4.63-43-5t-2.73,0c-2.76,0-5.52,0-8.27,0-1.13,0-18.61,0-22,0-72.17,118.5-144.33,237-216.5,355.5,89.33,0,178.67,0,268,0,3.52-.11,8.73-.35,15-1,57.82-5.95,98.1-34.63,108-42,34.15-25.43,53.23-55.32,63-74,17.99-34.4,22.56-65.42,24-81,4.7-50.97-9.98-89.82-16-104-5.69-13.4-23.5-51.54-64-84Z"/>
  </g>
  <g id="_" data-name="&amp;lt;&amp;gt;">
    <polygon points="620.42 1251.5 704.42 1251.5 571.21 1034.29 704.92 817 619.92 817 530.92 963 487 1034.25 620.42 1251.5"/>
    <polygon points="1364.99 1251.46 1280.99 1251.46 1414.19 1034.26 1280.49 816.96 1365.49 816.96 1454.49 962.96 1498.41 1034.21 1364.99 1251.46"/>
  </g>
</svg>